<svg width="50" height="50" viewBox="0 0 50 50" fill="none" xmlns="http://www.w3.org/2000/svg">
<path d="M45 0H5C2.23858 0 0 2.23858 0 5V45C0 47.7614 2.23858 50 5 50H45C47.7614 50 50 47.7614 50 45V5C50 2.23858 47.7614 0 45 0Z" fill="#430098"/>
<path d="M36.1963 9H13.8037C12.2626 9 11 10.2762 11 11.8571V11.8762V38.1238C11 39.7048 12.244 41 13.7851 41H13.8037H36.1963C37.7374 41 39 39.7238 39 38.1429V38.1238V11.8762C39 10.2952 37.756 9 36.2149 9C36.2149 9 36.2149 9 36.1963 9ZM37.4589 38.1238C37.4775 38.8286 36.9204 39.4 36.252 39.4C36.2334 39.4 36.2334 39.4 36.2149 39.4H13.8037C13.1167 39.4191 12.5597 38.8476 12.5597 38.1619C12.5597 38.1429 12.5597 38.1429 12.5597 38.1238V11.8762C12.5411 11.1714 13.0981 10.6 13.7666 10.6C13.7851 10.6 13.7851 10.6 13.8037 10.6H36.1963C36.8833 10.581 37.4403 11.1524 37.4403 11.8381C37.4403 11.8571 37.4403 11.8571 37.4403 11.8762V38.1238H37.4589ZM18.0371 36.2L21.5464 32.981L18.0371 29.7619V36.2ZM30.6631 23.2476C29.6605 22.2571 28.305 21.7429 26.9125 21.8C24.9257 21.8571 22.939 22.219 21.0637 22.9238V13.819H17.9443V27.6667L20.1353 26.619C20.1353 26.619 23.7188 24.9429 26.8568 24.9429C28.4164 24.9429 28.8064 25.819 28.8064 26.619V36.219H31.9443V26.619C32 25.3429 31.5358 24.1238 30.6631 23.2476ZM26.5411 19H29.679C30.9416 17.5524 31.7586 15.7429 32 13.8H28.8621C28.5093 15.7048 27.7109 17.4952 26.5411 19Z" fill="white"/>
</svg>
